<svg width="138" height="29" xmlns="http://www.w3.org/2000/svg" fill="none">
 <g>
  <title>Layer 1</title>
  <path d="m50.9392,20.7098c0,-0.0763 0.0381,-0.1144 0.1144,-0.1144l0.5832,0c0.0763,0 0.1144,0.0381 0.1144,0.1144l0,7.7768c0,0.0763 -0.0381,0.1144 -0.1144,0.1144l-0.5832,0c-0.0763,0 -0.1144,-0.0381 -0.1144,-0.1144l0,-3.4881c0,-0.0305 -0.0153,-0.0458 -0.0458,-0.0458l-2.0357,0c-0.0305,0 -0.0457,0.0153 -0.0457,0.0458l0,3.4881c0,0.0763 -0.0381,0.1144 -0.1144,0.1144l-0.5832,0c-0.0763,0 -0.1144,-0.0381 -0.1144,-0.1144l0,-7.7768c0,-0.0763 0.0381,-0.1144 0.1144,-0.1144l0.5832,0c0.0763,0 0.1144,0.0381 0.1144,0.1144l0,3.4767c0,0.0305 0.0152,0.0457 0.0457,0.0457l2.0357,0c0.0305,0 0.0458,-0.0152 0.0458,-0.0457l0,-3.4767z" fill="#111111" id="svg_1"/>
  <path d="m59.2842,28.6925c-0.5871,0 -1.0636,-0.183 -1.4296,-0.549c-0.3583,-0.366 -0.5375,-0.8501 -0.5375,-1.4524l0,-4.1858c0,-0.6023 0.1792,-1.0865 0.5375,-1.4524c0.366,-0.366 0.8425,-0.549 1.4296,-0.549c0.5947,0 1.075,0.183 1.441,0.549c0.366,0.3659 0.549,0.8501 0.549,1.4524l0,4.1858c0,0.5947 -0.183,1.0788 -0.549,1.4524c-0.366,0.366 -0.8463,0.549 -1.441,0.549zm0,-0.7091c0.3507,0 0.6328,-0.1144 0.8463,-0.3431c0.2211,-0.2363 0.3317,-0.5375 0.3317,-0.9035l0,-4.2658c0,-0.3736 -0.1106,-0.6748 -0.3317,-0.9035c-0.2135,-0.2364 -0.4956,-0.3545 -0.8463,-0.3545c-0.3431,0 -0.6214,0.1181 -0.8349,0.3545c-0.2134,0.2287 -0.3202,0.5299 -0.3202,0.9035l0,4.2658c0,0.366 0.1068,0.6672 0.3202,0.9035c0.2135,0.2287 0.4918,0.3431 0.8349,0.3431z" fill="#111111" id="svg_2"/>
  <path d="m70.3554,20.5954c0.0762,0 0.1144,0.0381 0.1144,0.1144l0,0.4803c0,0.0762 -0.0382,0.1144 -0.1144,0.1144l-1.5096,0c-0.0305,0 -0.0458,0.0152 -0.0458,0.0457l0,7.1364c0,0.0763 -0.0381,0.1144 -0.1143,0.1144l-0.5833,0c-0.0762,0 -0.1144,-0.0381 -0.1144,-0.1144l0,-7.1364c0,-0.0305 -0.0152,-0.0457 -0.0457,-0.0457l-1.4181,0c-0.0763,0 -0.1144,-0.0382 -0.1144,-0.1144l0,-0.4803c0,-0.0763 0.0381,-0.1144 0.1144,-0.1144l3.8312,0z" fill="#111111" id="svg_3"/>
  <path d="m79.4229,21.1901c0,0.0762 -0.0381,0.1144 -0.1144,0.1144l-2.6533,0c-0.0305,0 -0.0457,0.0152 -0.0457,0.0457l0,2.8363c0,0.0305 0.0152,0.0457 0.0457,0.0457l1.6698,0c0.0762,0 0.1143,0.0381 0.1143,0.1144l0,0.4918c0,0.0762 -0.0381,0.1143 -0.1143,0.1143l-1.6698,0c-0.0305,0 -0.0457,0.0153 -0.0457,0.0458l0,2.8477c0,0.0305 0.0152,0.0457 0.0457,0.0457l2.6533,0c0.0763,0 0.1144,0.0381 0.1144,0.1144l0,0.4803c0,0.0763 -0.0381,0.1144 -0.1144,0.1144l-3.3966,0c-0.0763,0 -0.1144,-0.0381 -0.1144,-0.1144l0,-7.7768c0,-0.0763 0.0381,-0.1144 0.1144,-0.1144l3.3966,0c0.0763,0 0.1144,0.0381 0.1144,0.1144l0,0.4803z" fill="#111111" id="svg_4"/>
  <path d="m84.932,28.601c-0.0763,0 -0.1144,-0.0381 -0.1144,-0.1144l0,-7.7768c0,-0.0763 0.0381,-0.1144 0.1144,-0.1144l0.5833,0c0.0762,0 0.1143,0.0381 0.1143,0.1144l0,7.1364c0,0.0305 0.0153,0.0457 0.0458,0.0457l2.6189,0c0.0763,0 0.1144,0.0381 0.1144,0.1144l0,0.4803c0,0.0763 -0.0381,0.1144 -0.1144,0.1144l-3.3623,0z" fill="#111111" id="svg_5"/>
  <path d="m104.679,28.4637c0.015,0.0153 0.023,0.0382 0.023,0.0687c0,0.0152 -0.008,0.0305 -0.023,0.0457c-0.015,0.0153 -0.038,0.0229 -0.068,0.0229l-0.618,0c-0.061,0 -0.107,-0.0229 -0.137,-0.0686l-0.469,-0.6862c-0.008,-0.0153 -0.019,-0.0229 -0.034,-0.0229c-0.016,0 -0.027,0.0038 -0.035,0.0114c-0.282,0.305 -0.575,0.5261 -0.88,0.6633c-0.298,0.1373 -0.633,0.2059 -1.007,0.2059c-0.587,0 -1.052,-0.1639 -1.395,-0.4918c-0.3431,-0.3278 -0.5146,-0.7929 -0.5146,-1.3952c0,-0.5109 0.1219,-0.9531 0.3659,-1.3267c0.2437,-0.3812 0.5797,-0.751 1.0067,-1.1093c0.023,-0.0076 0.026,-0.0267 0.011,-0.0572c-0.274,-0.4117 -0.476,-0.7281 -0.606,-0.9492c-0.13,-0.2288 -0.217,-0.4194 -0.263,-0.5718c-0.0381,-0.1602 -0.0572,-0.3393 -0.0572,-0.5376c0,-0.5337 0.1522,-0.9606 0.4572,-1.2809c0.305,-0.3202 0.706,-0.4803 1.201,-0.4803c0.496,0 0.9,0.1639 1.212,0.4918c0.321,0.3202 0.481,0.7395 0.481,1.258c0,0.4651 -0.118,0.8654 -0.355,1.2008c-0.236,0.3279 -0.575,0.6786 -1.018,1.0522c-0.023,0.0076 -0.026,0.0267 -0.011,0.0572c0.305,0.4269 0.53,0.751 0.675,0.9721l0.709,1.0064c0.007,0.0076 0.019,0.0114 0.034,0.0114c0.015,0 0.027,-0.0038 0.034,-0.0114c0.107,-0.1601 0.29,-0.4689 0.549,-0.9264c0.016,-0.0305 0.038,-0.0495 0.069,-0.0571c0.03,-0.0077 0.061,-0.0039 0.091,0.0114l0.435,0.2516c0.061,0.0381 0.072,0.0915 0.034,0.1601c-0.244,0.4498 -0.491,0.8501 -0.743,1.2008c-0.008,0.0229 -0.008,0.0458 0,0.0687l0.846,1.2122zm-3.019,-7.2164c-0.259,0 -0.469,0.0953 -0.629,0.2859c-0.16,0.183 -0.24,0.4346 -0.24,0.7548c0,0.2135 0.038,0.4155 0.114,0.6061c0.084,0.1907 0.271,0.5071 0.561,0.9493c0.015,0.0305 0.034,0.0343 0.057,0.0114c0.32,-0.2745 0.564,-0.5337 0.732,-0.7777c0.175,-0.244 0.263,-0.5184 0.263,-0.8234c0,-0.305 -0.08,-0.549 -0.24,-0.7319c-0.161,-0.183 -0.366,-0.2745 -0.618,-0.2745zm-0.149,6.7475c0.252,0 0.488,-0.061 0.709,-0.1829c0.221,-0.1297 0.446,-0.3241 0.675,-0.5833c0.015,-0.0229 0.015,-0.0458 0,-0.0686l-0.549,-0.7891l-0.949,-1.3381c-0.015,-0.0229 -0.034,-0.0229 -0.057,0c-0.328,0.2821 -0.58,0.5604 -0.755,0.8348c-0.168,0.2745 -0.252,0.5833 -0.252,0.9264c0,0.3583 0.103,0.6481 0.309,0.8692c0.206,0.2211 0.496,0.3316 0.869,0.3316z" fill="#111111" id="svg_6"/>
  <path d="m118.154,28.6925c-0.565,0 -1.022,-0.1868 -1.373,-0.5604c-0.35,-0.3736 -0.526,-0.8616 -0.526,-1.4639l0,-0.263c0,-0.0763 0.038,-0.1144 0.115,-0.1144l0.56,0c0.076,0 0.114,0.0381 0.114,0.1144l0,0.2287c0,0.4041 0.103,0.7319 0.309,0.9835c0.206,0.244 0.473,0.366 0.801,0.366c0.32,0 0.587,-0.1182 0.8,-0.3545c0.214,-0.2364 0.32,-0.549 0.32,-0.9378c0,-0.2593 -0.053,-0.4804 -0.16,-0.6633c-0.099,-0.1907 -0.232,-0.3546 -0.4,-0.4918c-0.16,-0.1449 -0.431,-0.3622 -0.812,-0.6519c-0.381,-0.2821 -0.682,-0.5223 -0.903,-0.7205c-0.222,-0.2059 -0.405,-0.4498 -0.549,-0.7319c-0.138,-0.2821 -0.206,-0.6138 -0.206,-0.995c0,-0.5947 0.171,-1.0636 0.514,-1.4067c0.343,-0.3507 0.789,-0.5261 1.338,-0.5261c0.58,0 1.041,0.1906 1.384,0.5718c0.351,0.3736 0.526,0.873 0.526,1.4982l0,0.2859c0,0.0763 -0.038,0.1144 -0.114,0.1144l-0.572,0c-0.076,0 -0.114,-0.0381 -0.114,-0.1144l0,-0.2973c0,-0.4041 -0.103,-0.7281 -0.309,-0.9721c-0.198,-0.2516 -0.465,-0.3774 -0.801,-0.3774c-0.305,0 -0.556,0.1105 -0.754,0.3316c-0.199,0.2135 -0.298,0.5185 -0.298,0.915c0,0.2363 0.042,0.446 0.126,0.629c0.092,0.1753 0.225,0.3431 0.4,0.5032c0.176,0.1601 0.435,0.3698 0.778,0.629c0.458,0.3355 0.797,0.6099 1.018,0.8234c0.229,0.2059 0.404,0.4346 0.526,0.6862c0.122,0.244 0.183,0.5413 0.183,0.8921c0,0.6252 -0.179,1.1284 -0.538,1.5096c-0.358,0.3736 -0.819,0.5604 -1.383,0.5604z" fill="#111111" id="svg_7"/>
  <path d="m127.385,20.584c0.557,0 1.006,0.2058 1.349,0.6175c0.344,0.4041 0.515,0.9378 0.515,1.6012c0,0.6556 -0.168,1.1855 -0.503,1.5896c-0.336,0.3965 -0.778,0.5947 -1.327,0.5947l-1.178,0c-0.03,0 -0.045,0.0153 -0.045,0.0458l0,3.4538c0,0.0763 -0.039,0.1144 -0.115,0.1144l-0.583,0c-0.076,0 -0.114,-0.0381 -0.114,-0.1144l0,-7.7883c0,-0.0762 0.038,-0.1143 0.114,-0.1143l1.887,0zm-0.103,3.7397c0.343,0 0.621,-0.1372 0.835,-0.4117c0.213,-0.2745 0.32,-0.6405 0.32,-1.0979c0,-0.4575 -0.107,-0.8234 -0.32,-1.0979c-0.214,-0.2821 -0.492,-0.4232 -0.835,-0.4232l-1.041,0c-0.03,0 -0.045,0.0153 -0.045,0.0458l0,2.9392c0,0.0305 0.015,0.0457 0.045,0.0457l1.041,0z" fill="#111111" id="svg_8"/>
  <path d="m137.289,28.601c-0.068,0 -0.11,-0.0343 -0.126,-0.103l-0.286,-1.4181c0,-0.0152 -0.007,-0.0267 -0.022,-0.0343c-0.008,-0.0076 -0.019,-0.0114 -0.035,-0.0114l-2.07,0c-0.015,0 -0.03,0.0038 -0.045,0.0114c-0.008,0.0076 -0.012,0.0191 -0.012,0.0343l-0.286,1.4181c-0.007,0.0687 -0.049,0.103 -0.126,0.103l-0.583,0c-0.038,0 -0.068,-0.0115 -0.091,-0.0343c-0.016,-0.0229 -0.019,-0.0534 -0.012,-0.0915l1.716,-7.7769c0.015,-0.0686 0.057,-0.1029 0.125,-0.1029l0.687,0c0.076,0 0.118,0.0343 0.125,0.1029l1.739,7.7769l0,0.0228c0,0.0687 -0.034,0.103 -0.103,0.103l-0.595,0zm-2.447,-2.2759c0,0.0305 0.011,0.0458 0.034,0.0458l1.807,0c0.023,0 0.034,-0.0153 0.034,-0.0458l-0.915,-4.4946c-0.007,-0.0228 -0.015,-0.0343 -0.022,-0.0343c-0.008,0 -0.016,0.0115 -0.023,0.0343l-0.915,4.4946z" fill="#111111" id="svg_9"/>
  <path d="m4.35209,24.9834c-0.06665,-0.0003 -0.13261,-0.0138 -0.19403,-0.0397c-0.06142,-0.0259 -0.11712,-0.0637 -0.16392,-0.1111c-5.48514,-5.4819 -3.75164,-15.86393 -3.67402,-16.30352l0.06038,-0.3534l0.35363,-0.06033c0.43985,-0.07758 10.82797,-1.80145 16.30877,3.67185c0.0953,0.0956 0.1488,0.225 0.1488,0.3599c0,0.1349 -0.0535,0.2643 -0.1488,0.3598c-0.0956,0.0952 -0.2251,0.1487 -0.36,0.1487c-0.135,0 -0.2645,-0.0535 -0.3601,-0.1487c-4.5624,-4.55101 -13.18677,-3.68907 -15.05396,-3.44342c-0.25011,1.86612 -1.11687,10.48542 3.44546,15.04512c0.09527,0.0955 0.14876,0.2249 0.14876,0.3598c0,0.1349 -0.05349,0.2643 -0.14876,0.3599c-0.04647,0.0494 -0.10265,0.0886 -0.16497,0.1153c-0.06232,0.0267 -0.12944,0.0403 -0.19724,0.0398z" fill="#AA8453" id="svg_15"/>
  <path d="m16.0471,28.8227c-3.618,0 -8.73662,-0.6766 -12.05703,-3.9864c-0.09527,-0.0956 -0.14876,-0.225 -0.14876,-0.3599c0,-0.1349 0.05349,-0.2643 0.14876,-0.3599c0.09561,-0.0952 0.22513,-0.1486 0.3601,-0.1486c0.13498,0 0.26444,0.0534 0.36006,0.1486c4.56232,4.5511 13.18677,3.6934 15.05397,3.4435c0.2501,-1.8661 1.1169,-10.4898 -3.4455,-15.0451c-0.0952,-0.0956 -0.1488,-0.225 -0.1488,-0.3599c0,-0.1349 0.0536,-0.2643 0.1488,-0.3598c0.0957,-0.0953 0.2251,-0.1487 0.3601,-0.1487c0.135,0 0.2644,0.0534 0.36,0.1487c5.4809,5.4819 3.7517,15.8639 3.6741,16.3035l-0.0604,0.3534l-0.3536,0.0603c-1.4073,0.2114 -2.8287,0.3151 -4.2518,0.3103z" fill="#AA8453" id="svg_16"/>
  <path d="m36.3959,24.9837c-0.1337,-0.0011 -0.2619,-0.0536 -0.358,-0.1465c-0.0952,-0.0956 -0.1487,-0.225 -0.1487,-0.3599c0,-0.1349 0.0535,-0.2643 0.1487,-0.3598c4.5538,-4.5597 3.6913,-13.1791 3.4455,-15.04515c-1.8672,-0.24996 -10.4959,-1.1119 -15.0539,3.44345c-0.0957,0.0952 -0.2251,0.1487 -0.3601,0.1487c-0.135,0 -0.2645,-0.0535 -0.3601,-0.1487c-0.0953,-0.0956 -0.1488,-0.225 -0.1488,-0.3599c0,-0.1349 0.0535,-0.2643 0.1488,-0.3598c5.4851,-5.47333 15.8733,-3.74514 16.3132,-3.67188l0.3535,0.06034l0.0604,0.35339c0.0776,0.43959 1.8025,10.81735 -3.674,16.29925c-0.0991,0.0935 -0.2302,0.1459 -0.3665,0.1465z" fill="#AA8453" id="svg_17"/>
  <path d="m24.697,28.8226c-1.4247,0.0043 -2.8476,-0.1009 -4.2561,-0.3146l-0.3536,-0.0603l-0.0604,-0.3534c-0.0776,-0.4396 -1.8068,-10.8216 3.674,-16.3035c0.0956,-0.0952 0.2251,-0.1487 0.3601,-0.1487c0.135,0 0.2644,0.0535 0.36,0.1487c0.0953,0.0955 0.1488,0.2249 0.1488,0.3598c0,0.1349 -0.0535,0.2643 -0.1488,0.3599c-4.5623,4.5596 -3.6955,13.179 -3.4454,15.0451c1.8672,0.25 10.4959,1.1119 15.0539,-3.4434c0.0957,-0.0953 0.2251,-0.1487 0.3601,-0.1487c0.135,0 0.2645,0.0534 0.3601,0.1487c0.0952,0.0955 0.1487,0.2249 0.1487,0.3598c0,0.1349 -0.0535,0.2643 -0.1487,0.3599c-3.3161,3.3184 -8.4347,3.9907 -12.0527,3.9907z" fill="#AA8453" id="svg_18"/>
  <path d="m20.2208,28.6594l-0.2932,-0.2069c-0.3665,-0.2585 -8.9349,-6.3783 -8.9349,-14.1228c0,-7.7445 8.5727,-13.86425 8.9349,-14.12283l0.2932,-0.20687l0.2933,0.20687c0.3665,0.25858 8.9349,6.36971 8.9349,14.12283c0,7.7445 -8.5727,13.8643 -8.9349,14.1228l-0.2933,0.2069zm0,-27.40528c-1.4963,1.14206 -8.2104,6.6326 -8.2104,13.07128c0,6.4387 6.7141,11.9292 8.2104,13.0713c1.4964,-1.1421 8.2105,-6.6326 8.2105,-13.0713c0,-6.43868 -6.7098,-11.92491 -8.2105,-13.07128z" fill="#aa8453" id="svg_19"/>
  <text stroke-dasharray="5,2,2,2,2,2" filter="url(#svg_20_blur)" font-weight="normal" transform="matrix(0.883237 0 0 0.986461 12.6214 0.286018)" stroke="null" xml:space="preserve" text-anchor="start" font-family="Noto Sans JP" font-size="24" stroke-width="24" id="svg_20" y="15.47343" x="37.54135" fill="#aa8453">SURESTE</text>
 </g>

</svg>